<mxfile host="app.diagrams.net" modified="2024-04-14T14:56:40.705Z" agent="Mozilla/5.0 (Macintosh; Intel Mac OS X 10_15_7) AppleWebKit/537.36 (KHTML, like Gecko) Chrome/123.0.0.0 Safari/537.36" etag="7X_aCfbzqozYSRlT8qlE" version="24.2.5" type="google">
  <diagram name="Replication Multiple Machine" id="oGgIKcy1KZ6UAMiOBFBA">
    <mxGraphModel grid="1" page="1" gridSize="10" guides="1" tooltips="1" connect="1" arrows="1" fold="1" pageScale="1" pageWidth="827" pageHeight="1169" background="#000000" math="0" shadow="0">
      <root>
        <mxCell id="J8uCGS3BcCjM7RrEL_1T-0" />
        <mxCell id="J8uCGS3BcCjM7RrEL_1T-1" parent="J8uCGS3BcCjM7RrEL_1T-0" />
        <mxCell id="0Lq6ei8JvvkG0iNvDyIp-28" value="" style="rounded=1;whiteSpace=wrap;html=1;strokeColor=default;container=0;" vertex="1" parent="J8uCGS3BcCjM7RrEL_1T-1">
          <mxGeometry x="40" y="80" width="1230" height="1230" as="geometry" />
        </mxCell>
        <mxCell id="GXZVyJL7a8LmTCk5dLTQ-2" value="" style="edgeStyle=orthogonalEdgeStyle;rounded=0;orthogonalLoop=1;jettySize=auto;html=1;" edge="1" parent="J8uCGS3BcCjM7RrEL_1T-1">
          <mxGeometry relative="1" as="geometry">
            <mxPoint x="295" y="169.00150943396227" as="sourcePoint" />
          </mxGeometry>
        </mxCell>
        <mxCell id="0Lq6ei8JvvkG0iNvDyIp-15" value="" style="edgeStyle=orthogonalEdgeStyle;rounded=0;orthogonalLoop=1;jettySize=auto;html=1;" edge="1" parent="J8uCGS3BcCjM7RrEL_1T-1">
          <mxGeometry relative="1" as="geometry">
            <mxPoint x="20" y="425" as="sourcePoint" />
          </mxGeometry>
        </mxCell>
        <mxCell id="0Lq6ei8JvvkG0iNvDyIp-16" value="" style="edgeStyle=orthogonalEdgeStyle;rounded=0;orthogonalLoop=1;jettySize=auto;html=1;" edge="1" parent="J8uCGS3BcCjM7RrEL_1T-1">
          <mxGeometry relative="1" as="geometry">
            <mxPoint x="170" y="425" as="sourcePoint" />
          </mxGeometry>
        </mxCell>
        <mxCell id="0Lq6ei8JvvkG0iNvDyIp-17" value="" style="edgeStyle=orthogonalEdgeStyle;rounded=0;orthogonalLoop=1;jettySize=auto;html=1;" edge="1" parent="J8uCGS3BcCjM7RrEL_1T-1">
          <mxGeometry relative="1" as="geometry">
            <mxPoint x="320" y="425" as="sourcePoint" />
          </mxGeometry>
        </mxCell>
        <mxCell id="0Lq6ei8JvvkG0iNvDyIp-23" value="" style="edgeStyle=orthogonalEdgeStyle;rounded=0;orthogonalLoop=1;jettySize=auto;html=1;" edge="1" parent="J8uCGS3BcCjM7RrEL_1T-1">
          <mxGeometry relative="1" as="geometry">
            <mxPoint x="720" y="415.79999999999995" as="sourcePoint" />
          </mxGeometry>
        </mxCell>
        <mxCell id="0Lq6ei8JvvkG0iNvDyIp-24" value="" style="edgeStyle=orthogonalEdgeStyle;rounded=0;orthogonalLoop=1;jettySize=auto;html=1;" edge="1" parent="J8uCGS3BcCjM7RrEL_1T-1">
          <mxGeometry relative="1" as="geometry">
            <mxPoint x="830" y="415.79999999999995" as="sourcePoint" />
          </mxGeometry>
        </mxCell>
        <mxCell id="0Lq6ei8JvvkG0iNvDyIp-25" value="" style="edgeStyle=orthogonalEdgeStyle;rounded=0;orthogonalLoop=1;jettySize=auto;html=1;" edge="1" parent="J8uCGS3BcCjM7RrEL_1T-1">
          <mxGeometry relative="1" as="geometry">
            <mxPoint x="940" y="415.79999999999995" as="sourcePoint" />
          </mxGeometry>
        </mxCell>
        <mxCell id="0Lq6ei8JvvkG0iNvDyIp-26" value="" style="edgeStyle=orthogonalEdgeStyle;rounded=0;orthogonalLoop=1;jettySize=auto;html=1;" edge="1" parent="J8uCGS3BcCjM7RrEL_1T-1">
          <mxGeometry relative="1" as="geometry">
            <mxPoint x="1050" y="415.79999999999995" as="sourcePoint" />
          </mxGeometry>
        </mxCell>
        <mxCell id="GXZVyJL7a8LmTCk5dLTQ-3" value="" style="edgeStyle=orthogonalEdgeStyle;rounded=0;orthogonalLoop=1;jettySize=auto;html=1;" edge="1" parent="J8uCGS3BcCjM7RrEL_1T-1">
          <mxGeometry relative="1" as="geometry">
            <mxPoint x="475" y="169.00150943396227" as="sourcePoint" />
          </mxGeometry>
        </mxCell>
        <mxCell id="1FsDsGf2ufcHj_-_yAfK-1" value="" style="rounded=1;whiteSpace=wrap;html=1;strokeColor=default;container=0;" vertex="1" parent="J8uCGS3BcCjM7RrEL_1T-1">
          <mxGeometry x="69" y="535" width="301" height="335" as="geometry" />
        </mxCell>
        <mxCell id="1FsDsGf2ufcHj_-_yAfK-3" value="" style="rounded=1;whiteSpace=wrap;html=1;strokeColor=default;container=0;" vertex="1" parent="J8uCGS3BcCjM7RrEL_1T-1">
          <mxGeometry x="69" y="990" width="301" height="210" as="geometry" />
        </mxCell>
        <mxCell id="1FsDsGf2ufcHj_-_yAfK-4" value="" style="rounded=1;whiteSpace=wrap;html=1;strokeColor=default;container=0;" vertex="1" parent="J8uCGS3BcCjM7RrEL_1T-1">
          <mxGeometry x="490" y="990" width="301" height="210" as="geometry" />
        </mxCell>
        <mxCell id="xVIrmUXRm1avwGHS0gCq-0" value="&lt;h2&gt;Standby&lt;/h2&gt;" style="shape=cylinder3;whiteSpace=wrap;html=1;boundedLbl=1;backgroundOutline=1;size=15;" vertex="1" parent="J8uCGS3BcCjM7RrEL_1T-1">
          <mxGeometry x="223" y="630" width="100" height="100" as="geometry" />
        </mxCell>
        <mxCell id="1FsDsGf2ufcHj_-_yAfK-5" style="edgeStyle=orthogonalEdgeStyle;rounded=0;orthogonalLoop=1;jettySize=auto;html=1;" edge="1" parent="J8uCGS3BcCjM7RrEL_1T-1" source="xVIrmUXRm1avwGHS0gCq-6" target="xVIrmUXRm1avwGHS0gCq-0">
          <mxGeometry relative="1" as="geometry" />
        </mxCell>
        <mxCell id="1FsDsGf2ufcHj_-_yAfK-8" style="edgeStyle=orthogonalEdgeStyle;rounded=0;orthogonalLoop=1;jettySize=auto;html=1;entryX=0;entryY=0.5;entryDx=0;entryDy=0;" edge="1" parent="J8uCGS3BcCjM7RrEL_1T-1" source="xVIrmUXRm1avwGHS0gCq-6" target="1FsDsGf2ufcHj_-_yAfK-7">
          <mxGeometry relative="1" as="geometry" />
        </mxCell>
        <mxCell id="xVIrmUXRm1avwGHS0gCq-6" value="&lt;font style=&quot;font-size: 20px;&quot;&gt;Patroni&lt;/font&gt;" style="rounded=1;whiteSpace=wrap;html=1;" vertex="1" parent="J8uCGS3BcCjM7RrEL_1T-1">
          <mxGeometry x="89.5" y="750" width="80" height="110" as="geometry" />
        </mxCell>
        <mxCell id="kCRNwn6qarhYmWp9XZ3q-0" value="&lt;h1 style=&quot;margin-top: 0px;&quot;&gt;&lt;font style=&quot;font-size: 30px;&quot;&gt;PG-N&lt;/font&gt;&lt;/h1&gt;" style="text;html=1;whiteSpace=wrap;overflow=hidden;rounded=0;align=center;" vertex="1" parent="J8uCGS3BcCjM7RrEL_1T-1">
          <mxGeometry x="109" y="545" width="221" height="60" as="geometry" />
        </mxCell>
        <mxCell id="1FsDsGf2ufcHj_-_yAfK-6" value="&lt;h1 style=&quot;margin-top: 0px;&quot;&gt;&lt;font style=&quot;font-size: 30px;&quot;&gt;ETCD-N&lt;/font&gt;&lt;/h1&gt;" style="text;html=1;whiteSpace=wrap;overflow=hidden;rounded=0;align=center;" vertex="1" parent="J8uCGS3BcCjM7RrEL_1T-1">
          <mxGeometry x="109" y="1000" width="221" height="60" as="geometry" />
        </mxCell>
        <mxCell id="1FsDsGf2ufcHj_-_yAfK-7" value="&lt;font style=&quot;font-size: 20px;&quot;&gt;ETCD&lt;/font&gt;" style="ellipse;whiteSpace=wrap;html=1;aspect=fixed;" vertex="1" parent="J8uCGS3BcCjM7RrEL_1T-1">
          <mxGeometry x="169.5" y="1070" width="100" height="100" as="geometry" />
        </mxCell>
        <mxCell id="1FsDsGf2ufcHj_-_yAfK-9" value="" style="rounded=1;whiteSpace=wrap;html=1;strokeColor=default;container=0;" vertex="1" parent="J8uCGS3BcCjM7RrEL_1T-1">
          <mxGeometry x="490" y="535" width="301" height="335" as="geometry" />
        </mxCell>
        <mxCell id="2DEKNnrkmUUWg0Xdafv3-30" style="edgeStyle=orthogonalEdgeStyle;rounded=0;orthogonalLoop=1;jettySize=auto;html=1;" edge="1" parent="J8uCGS3BcCjM7RrEL_1T-1" source="1FsDsGf2ufcHj_-_yAfK-11" target="xVIrmUXRm1avwGHS0gCq-0">
          <mxGeometry relative="1" as="geometry" />
        </mxCell>
        <mxCell id="2DEKNnrkmUUWg0Xdafv3-31" value="&lt;font style=&quot;font-size: 16px;&quot;&gt;Streaming Replication&lt;/font&gt;" style="edgeLabel;html=1;align=center;verticalAlign=middle;resizable=0;points=[];" connectable="0" vertex="1" parent="2DEKNnrkmUUWg0Xdafv3-30">
          <mxGeometry x="0.1891" y="-1" relative="1" as="geometry">
            <mxPoint as="offset" />
          </mxGeometry>
        </mxCell>
        <mxCell id="1FsDsGf2ufcHj_-_yAfK-11" value="&lt;h2&gt;Primary&lt;/h2&gt;" style="shape=cylinder3;whiteSpace=wrap;html=1;boundedLbl=1;backgroundOutline=1;size=15;" vertex="1" parent="J8uCGS3BcCjM7RrEL_1T-1">
          <mxGeometry x="590.5" y="630" width="100" height="100" as="geometry" />
        </mxCell>
        <mxCell id="1FsDsGf2ufcHj_-_yAfK-16" value="" style="edgeStyle=orthogonalEdgeStyle;rounded=0;orthogonalLoop=1;jettySize=auto;html=1;" edge="1" parent="J8uCGS3BcCjM7RrEL_1T-1" source="1FsDsGf2ufcHj_-_yAfK-12" target="1FsDsGf2ufcHj_-_yAfK-11">
          <mxGeometry relative="1" as="geometry">
            <Array as="points">
              <mxPoint x="641" y="750" />
            </Array>
          </mxGeometry>
        </mxCell>
        <mxCell id="1FsDsGf2ufcHj_-_yAfK-19" style="edgeStyle=orthogonalEdgeStyle;rounded=0;orthogonalLoop=1;jettySize=auto;html=1;entryX=0;entryY=0.5;entryDx=0;entryDy=0;" edge="1" parent="J8uCGS3BcCjM7RrEL_1T-1" source="1FsDsGf2ufcHj_-_yAfK-12" target="1FsDsGf2ufcHj_-_yAfK-17">
          <mxGeometry relative="1" as="geometry">
            <Array as="points">
              <mxPoint x="560" y="1120" />
            </Array>
          </mxGeometry>
        </mxCell>
        <mxCell id="1FsDsGf2ufcHj_-_yAfK-12" value="&lt;font style=&quot;font-size: 20px;&quot;&gt;Patroni&lt;/font&gt;" style="rounded=1;whiteSpace=wrap;html=1;" vertex="1" parent="J8uCGS3BcCjM7RrEL_1T-1">
          <mxGeometry x="519" y="750" width="80" height="110" as="geometry" />
        </mxCell>
        <mxCell id="1FsDsGf2ufcHj_-_yAfK-13" value="&lt;h1 style=&quot;margin-top: 0px;&quot;&gt;&lt;font style=&quot;font-size: 30px;&quot;&gt;PG-N&lt;/font&gt;&lt;/h1&gt;" style="text;html=1;whiteSpace=wrap;overflow=hidden;rounded=0;align=center;" vertex="1" parent="J8uCGS3BcCjM7RrEL_1T-1">
          <mxGeometry x="530" y="545" width="221" height="60" as="geometry" />
        </mxCell>
        <mxCell id="1FsDsGf2ufcHj_-_yAfK-17" value="&lt;font style=&quot;font-size: 20px;&quot;&gt;ETCD&lt;/font&gt;" style="ellipse;whiteSpace=wrap;html=1;aspect=fixed;" vertex="1" parent="J8uCGS3BcCjM7RrEL_1T-1">
          <mxGeometry x="599" y="1070" width="100" height="100" as="geometry" />
        </mxCell>
        <mxCell id="1FsDsGf2ufcHj_-_yAfK-18" value="&lt;h1 style=&quot;margin-top: 0px;&quot;&gt;&lt;font style=&quot;font-size: 30px;&quot;&gt;ETCD-N&lt;/font&gt;&lt;/h1&gt;" style="text;html=1;whiteSpace=wrap;overflow=hidden;rounded=0;align=center;" vertex="1" parent="J8uCGS3BcCjM7RrEL_1T-1">
          <mxGeometry x="538.5" y="1000" width="221" height="60" as="geometry" />
        </mxCell>
        <mxCell id="1FsDsGf2ufcHj_-_yAfK-22" value="&lt;h1 style=&quot;margin-top: 0px;&quot;&gt;&lt;font style=&quot;font-size: 30px;&quot;&gt;Cluster&lt;/font&gt;&lt;/h1&gt;" style="text;html=1;whiteSpace=wrap;overflow=hidden;rounded=0;align=center;" vertex="1" parent="J8uCGS3BcCjM7RrEL_1T-1">
          <mxGeometry x="522" y="100" width="221" height="60" as="geometry" />
        </mxCell>
        <mxCell id="1FsDsGf2ufcHj_-_yAfK-23" value="" style="rounded=1;whiteSpace=wrap;html=1;strokeColor=default;container=0;" vertex="1" parent="J8uCGS3BcCjM7RrEL_1T-1">
          <mxGeometry x="507.5" y="170" width="250" height="130" as="geometry" />
        </mxCell>
        <mxCell id="1FsDsGf2ufcHj_-_yAfK-24" value="&lt;h1 style=&quot;margin-top: 0px;&quot;&gt;&lt;font style=&quot;font-size: 30px;&quot;&gt;Client&lt;/font&gt;&lt;/h1&gt;" style="text;html=1;whiteSpace=wrap;overflow=hidden;rounded=0;align=center;" vertex="1" parent="J8uCGS3BcCjM7RrEL_1T-1">
          <mxGeometry x="522" y="170" width="221" height="60" as="geometry" />
        </mxCell>
        <mxCell id="1FsDsGf2ufcHj_-_yAfK-26" value="PG Admin" style="shape=umlActor;verticalLabelPosition=bottom;verticalAlign=top;html=1;outlineConnect=0;" vertex="1" parent="J8uCGS3BcCjM7RrEL_1T-1">
          <mxGeometry x="617.5" y="220" width="30" height="60" as="geometry" />
        </mxCell>
        <mxCell id="2DEKNnrkmUUWg0Xdafv3-1" value="" style="rounded=1;whiteSpace=wrap;html=1;strokeColor=default;container=0;" vertex="1" parent="J8uCGS3BcCjM7RrEL_1T-1">
          <mxGeometry x="490" y="330" width="285" height="130" as="geometry" />
        </mxCell>
        <mxCell id="2DEKNnrkmUUWg0Xdafv3-2" value="&lt;h1 style=&quot;margin-top: 0px;&quot;&gt;&lt;font style=&quot;font-size: 30px;&quot;&gt;HAProxy&lt;/font&gt;&lt;/h1&gt;" style="text;html=1;whiteSpace=wrap;overflow=hidden;rounded=0;align=center;" vertex="1" parent="J8uCGS3BcCjM7RrEL_1T-1">
          <mxGeometry x="522" y="330" width="221" height="60" as="geometry" />
        </mxCell>
        <mxCell id="2DEKNnrkmUUWg0Xdafv3-5" style="edgeStyle=orthogonalEdgeStyle;rounded=0;orthogonalLoop=1;jettySize=auto;html=1;startArrow=classic;startFill=1;exitX=0.5;exitY=1;exitDx=0;exitDy=0;" edge="1" parent="J8uCGS3BcCjM7RrEL_1T-1" source="2DEKNnrkmUUWg0Xdafv3-16" target="xVIrmUXRm1avwGHS0gCq-0">
          <mxGeometry relative="1" as="geometry">
            <Array as="points">
              <mxPoint x="700" y="520" />
              <mxPoint x="273" y="520" />
            </Array>
          </mxGeometry>
        </mxCell>
        <mxCell id="2DEKNnrkmUUWg0Xdafv3-8" value="&lt;font style=&quot;font-size: 16px;&quot;&gt;Read&lt;/font&gt;" style="edgeLabel;html=1;align=center;verticalAlign=middle;resizable=0;points=[];" connectable="0" vertex="1" parent="2DEKNnrkmUUWg0Xdafv3-5">
          <mxGeometry x="0.0221" relative="1" as="geometry">
            <mxPoint x="10" as="offset" />
          </mxGeometry>
        </mxCell>
        <mxCell id="2DEKNnrkmUUWg0Xdafv3-32" style="edgeStyle=orthogonalEdgeStyle;rounded=0;orthogonalLoop=1;jettySize=auto;html=1;" edge="1" parent="J8uCGS3BcCjM7RrEL_1T-1" source="2DEKNnrkmUUWg0Xdafv3-3" target="1FsDsGf2ufcHj_-_yAfK-11">
          <mxGeometry relative="1" as="geometry">
            <Array as="points">
              <mxPoint x="563" y="590" />
              <mxPoint x="641" y="590" />
            </Array>
          </mxGeometry>
        </mxCell>
        <mxCell id="2DEKNnrkmUUWg0Xdafv3-33" value="&lt;font style=&quot;font-size: 16px;&quot;&gt;Read / Write&lt;/font&gt;" style="edgeLabel;html=1;align=center;verticalAlign=middle;resizable=0;points=[];" connectable="0" vertex="1" parent="2DEKNnrkmUUWg0Xdafv3-32">
          <mxGeometry x="-0.6829" y="2" relative="1" as="geometry">
            <mxPoint as="offset" />
          </mxGeometry>
        </mxCell>
        <mxCell id="2DEKNnrkmUUWg0Xdafv3-3" value="&lt;font style=&quot;font-size: 20px;&quot;&gt;HAProxy&lt;/font&gt;&lt;div&gt;&lt;font style=&quot;font-size: 20px;&quot;&gt;Port 5000&lt;/font&gt;&lt;/div&gt;" style="rounded=1;whiteSpace=wrap;html=1;" vertex="1" parent="J8uCGS3BcCjM7RrEL_1T-1">
          <mxGeometry x="508" y="380" width="110" height="70" as="geometry" />
        </mxCell>
        <mxCell id="2DEKNnrkmUUWg0Xdafv3-15" value="" style="rounded=1;whiteSpace=wrap;html=1;strokeColor=default;container=0;" vertex="1" parent="J8uCGS3BcCjM7RrEL_1T-1">
          <mxGeometry x="900" y="535" width="301" height="335" as="geometry" />
        </mxCell>
        <mxCell id="2DEKNnrkmUUWg0Xdafv3-21" style="edgeStyle=orthogonalEdgeStyle;rounded=0;orthogonalLoop=1;jettySize=auto;html=1;" edge="1" parent="J8uCGS3BcCjM7RrEL_1T-1" source="2DEKNnrkmUUWg0Xdafv3-16" target="2DEKNnrkmUUWg0Xdafv3-15">
          <mxGeometry relative="1" as="geometry" />
        </mxCell>
        <mxCell id="2DEKNnrkmUUWg0Xdafv3-24" value="&lt;font style=&quot;font-size: 16px;&quot;&gt;Read&lt;/font&gt;" style="edgeLabel;html=1;align=center;verticalAlign=middle;resizable=0;points=[];" connectable="0" vertex="1" parent="2DEKNnrkmUUWg0Xdafv3-21">
          <mxGeometry x="-0.0937" y="-1" relative="1" as="geometry">
            <mxPoint as="offset" />
          </mxGeometry>
        </mxCell>
        <mxCell id="2DEKNnrkmUUWg0Xdafv3-16" value="&lt;font style=&quot;font-size: 20px;&quot;&gt;HAProxy&lt;/font&gt;&lt;div&gt;&lt;font style=&quot;font-size: 20px;&quot;&gt;Port 5000&lt;/font&gt;&lt;/div&gt;" style="rounded=1;whiteSpace=wrap;html=1;" vertex="1" parent="J8uCGS3BcCjM7RrEL_1T-1">
          <mxGeometry x="645" y="380" width="110" height="70" as="geometry" />
        </mxCell>
        <mxCell id="2DEKNnrkmUUWg0Xdafv3-17" style="edgeStyle=orthogonalEdgeStyle;rounded=0;orthogonalLoop=1;jettySize=auto;html=1;entryX=0.5;entryY=0;entryDx=0;entryDy=0;" edge="1" parent="J8uCGS3BcCjM7RrEL_1T-1" source="1FsDsGf2ufcHj_-_yAfK-26" target="2DEKNnrkmUUWg0Xdafv3-3">
          <mxGeometry relative="1" as="geometry">
            <Array as="points">
              <mxPoint x="563" y="250" />
            </Array>
          </mxGeometry>
        </mxCell>
        <mxCell id="2DEKNnrkmUUWg0Xdafv3-18" style="edgeStyle=orthogonalEdgeStyle;rounded=0;orthogonalLoop=1;jettySize=auto;html=1;" edge="1" parent="J8uCGS3BcCjM7RrEL_1T-1" source="1FsDsGf2ufcHj_-_yAfK-26" target="2DEKNnrkmUUWg0Xdafv3-16">
          <mxGeometry relative="1" as="geometry">
            <Array as="points">
              <mxPoint x="700" y="250" />
            </Array>
          </mxGeometry>
        </mxCell>
        <mxCell id="2DEKNnrkmUUWg0Xdafv3-26" value="&lt;h2&gt;Standby&lt;/h2&gt;" style="shape=cylinder3;whiteSpace=wrap;html=1;boundedLbl=1;backgroundOutline=1;size=15;" vertex="1" parent="J8uCGS3BcCjM7RrEL_1T-1">
          <mxGeometry x="1010" y="630" width="100" height="100" as="geometry" />
        </mxCell>
        <mxCell id="2DEKNnrkmUUWg0Xdafv3-27" style="edgeStyle=orthogonalEdgeStyle;rounded=0;orthogonalLoop=1;jettySize=auto;html=1;" edge="1" parent="J8uCGS3BcCjM7RrEL_1T-1" source="1FsDsGf2ufcHj_-_yAfK-11" target="2DEKNnrkmUUWg0Xdafv3-26">
          <mxGeometry relative="1" as="geometry" />
        </mxCell>
        <mxCell id="2DEKNnrkmUUWg0Xdafv3-29" value="&lt;font style=&quot;font-size: 16px;&quot;&gt;Streaming Replication&lt;/font&gt;" style="edgeLabel;html=1;align=center;verticalAlign=middle;resizable=0;points=[];" connectable="0" vertex="1" parent="2DEKNnrkmUUWg0Xdafv3-27">
          <mxGeometry x="0.0201" y="1" relative="1" as="geometry">
            <mxPoint as="offset" />
          </mxGeometry>
        </mxCell>
        <mxCell id="2DEKNnrkmUUWg0Xdafv3-34" value="&lt;h1 style=&quot;margin-top: 0px;&quot;&gt;&lt;font style=&quot;font-size: 30px;&quot;&gt;PG-N&lt;/font&gt;&lt;/h1&gt;" style="text;html=1;whiteSpace=wrap;overflow=hidden;rounded=0;align=center;" vertex="1" parent="J8uCGS3BcCjM7RrEL_1T-1">
          <mxGeometry x="940" y="545" width="221" height="60" as="geometry" />
        </mxCell>
        <mxCell id="2DEKNnrkmUUWg0Xdafv3-35" value="" style="rounded=1;whiteSpace=wrap;html=1;strokeColor=default;container=0;" vertex="1" parent="J8uCGS3BcCjM7RrEL_1T-1">
          <mxGeometry x="900" y="990" width="301" height="210" as="geometry" />
        </mxCell>
        <mxCell id="2DEKNnrkmUUWg0Xdafv3-37" value="&lt;font style=&quot;font-size: 20px;&quot;&gt;ETCD&lt;/font&gt;" style="ellipse;whiteSpace=wrap;html=1;aspect=fixed;" vertex="1" parent="J8uCGS3BcCjM7RrEL_1T-1">
          <mxGeometry x="1009" y="1070" width="100" height="100" as="geometry" />
        </mxCell>
        <mxCell id="2DEKNnrkmUUWg0Xdafv3-38" value="&lt;h1 style=&quot;margin-top: 0px;&quot;&gt;&lt;font style=&quot;font-size: 30px;&quot;&gt;ETCD-N&lt;/font&gt;&lt;/h1&gt;" style="text;html=1;whiteSpace=wrap;overflow=hidden;rounded=0;align=center;" vertex="1" parent="J8uCGS3BcCjM7RrEL_1T-1">
          <mxGeometry x="948.5" y="1000" width="221" height="60" as="geometry" />
        </mxCell>
        <mxCell id="2DEKNnrkmUUWg0Xdafv3-40" style="edgeStyle=orthogonalEdgeStyle;rounded=0;orthogonalLoop=1;jettySize=auto;html=1;" edge="1" parent="J8uCGS3BcCjM7RrEL_1T-1" source="2DEKNnrkmUUWg0Xdafv3-39" target="2DEKNnrkmUUWg0Xdafv3-26">
          <mxGeometry relative="1" as="geometry">
            <Array as="points">
              <mxPoint x="1060" y="750" />
            </Array>
          </mxGeometry>
        </mxCell>
        <mxCell id="2DEKNnrkmUUWg0Xdafv3-41" style="edgeStyle=orthogonalEdgeStyle;rounded=0;orthogonalLoop=1;jettySize=auto;html=1;entryX=0;entryY=0.5;entryDx=0;entryDy=0;" edge="1" parent="J8uCGS3BcCjM7RrEL_1T-1" source="2DEKNnrkmUUWg0Xdafv3-39" target="2DEKNnrkmUUWg0Xdafv3-37">
          <mxGeometry relative="1" as="geometry" />
        </mxCell>
        <mxCell id="2DEKNnrkmUUWg0Xdafv3-39" value="&lt;font style=&quot;font-size: 20px;&quot;&gt;Patroni&lt;/font&gt;" style="rounded=1;whiteSpace=wrap;html=1;" vertex="1" parent="J8uCGS3BcCjM7RrEL_1T-1">
          <mxGeometry x="929" y="750" width="80" height="110" as="geometry" />
        </mxCell>
      </root>
    </mxGraphModel>
  </diagram>
</mxfile>
